<?xml version="1.0" encoding="UTF-8" standalone="no"?>
<!DOCTYPE svg PUBLIC "-//W3C//DTD SVG 1.1//EN" "http://www.w3.org/Graphics/SVG/1.1/DTD/svg11.dtd">
<svg width="100%" height="100%" viewBox="0 0 500 500" version="1.1" xmlns="http://www.w3.org/2000/svg" xmlns:xlink="http://www.w3.org/1999/xlink" xml:space="preserve" xmlns:serif="http://www.serif.com/" style="fill-rule:evenodd;clip-rule:evenodd;stroke-linejoin:round;stroke-miterlimit:2;">
    <g id="svg_1" transform="matrix(3.89228,0,0,3.89228,-10.3934,16.4633)">
        <g id="svg_2">
            <g id="svg_3">
                <path id="svg_4" d="M129.7,51.2L126.1,45.3L106.6,12.5L105.9,11.4L98.8,11.4L71.1,60.1L99.2,108.6L106.4,108.5L106.5,108.2L129.8,68.4L115.4,68.4L103,90.4L85.4,60L102.8,29.5L115.2,51.2L129.7,51.2Z" style="fill:rgb(65,230,175);fill-rule:nonzero;"/>
            </g>
        </g>
        <g id="svg_5">
            <g id="svg_6">
                <path id="svg_7" d="M21.3,43.3L34.3,21.2L30,14.1L26.9,9.2L4.6,48.4L4,49.5L7.5,55.7L63.6,55.7L91.8,7.3L87.9,0.6L48.7,0.7L48.1,0.7L41.8,0.6L45.2,6.8L48.5,13.1L74.2,13L56.5,43.3L21.3,43.3Z" style="fill:rgb(65,230,175);fill-rule:nonzero;"/>
            </g>
        </g>
        <g id="svg_8">
            <g id="svg_9">
                <path id="svg_10" d="M49,17.7C48,17.7 47,17.9 45.9,18.2C44.7,18.5 43.6,19.1 42.5,19.7C39.5,21.5 37.4,24.2 37,26.7C36.8,27.8 37.1,28.8 37.7,29.6C37.8,29.7 37.9,29.9 38.1,30C38.2,30.1 38.3,30.1 38.4,30.2C38.5,30.2 38.5,30.3 38.6,30.3C38.8,30.4 38.9,30.5 39.1,30.6C41,31.5 43.9,31.3 46.8,30L46.9,30C47.2,29.9 47.4,29.7 47.7,29.6C47.9,29.5 48.2,29.3 48.4,29.2C48.7,29 48.9,28.9 49.2,28.7C49.4,28.5 49.7,28.4 49.9,28.2L50.1,28.1C50.3,28 50.4,27.8 50.6,27.7L52.1,26.2C52.2,26.1 52.3,25.9 52.4,25.8L52.5,25.6C52.6,25.5 52.7,25.3 52.8,25.2L52.9,25C53,24.8 53.2,24.6 53.3,24.3C53.4,24.1 53.5,23.9 53.6,23.7L53.7,23.6C53.7,23.5 53.8,23.4 53.8,23.4C53.8,23.3 53.8,23.3 53.9,23.2C53.9,23.1 54,22.9 54,22.8C54,22.7 54.1,22.6 54.1,22.5L54.1,20.6C54.1,20.5 54,20.3 54,20.2C53.9,20 53.9,19.9 53.8,19.7C52.6,18.3 51,17.7 49,17.7" style="fill:rgb(65,230,175);fill-rule:nonzero;"/>
            </g>
        </g>
        <g id="svg_11">
            <g id="svg_12">
                <path id="svg_13" d="M55.5,24.2C55.5,24.3 55.4,24.5 55.4,24.6C55.4,24.7 55.4,24.7 55.3,24.8C55.2,25 55.1,25.3 55,25.5C54.1,27.4 52.4,29.1 50.4,30.5C50.1,30.7 49.9,30.9 49.6,31C49.3,31.2 49.1,31.3 48.8,31.5L48.7,31.5C48.6,31.6 48.5,31.6 48.4,31.6C48.2,31.7 48.1,31.8 47.9,31.8L47.8,31.8C47.7,31.8 47.6,31.9 47.6,31.9C47.4,32 47.2,32.1 47.1,32.1L46.9,32.2L46.8,32.2C46.7,32.2 46.6,32.3 46.6,32.3C46.4,32.4 46.3,32.4 46.1,32.5L45.9,32.6L45.8,32.6C45.6,32.7 45.5,32.7 45.3,32.7C45.2,32.7 45.1,32.8 45,32.8C44.8,32.8 44.7,32.9 44.6,32.9C44.5,32.9 44.4,32.9 44.3,33L43.7,33C43.4,33 43.1,33.1 42.8,33.1L41.6,33.1C41.4,33.1 41.2,33.1 41,33L40.7,33C40.5,33 40.3,32.9 40.2,32.9C40.1,32.9 40,32.9 39.9,32.8L44.8,40.8L55.3,40.7L60.7,31.1L55.8,23.1C55.8,23.2 55.8,23.3 55.7,23.4L55.7,23.5C55.6,23.9 55.5,24 55.5,24.2C55.5,24.1 55.5,24.2 55.5,24.2" style="fill:rgb(65,230,175);fill-rule:nonzero;"/>
            </g>
        </g>
        <g id="svg_14">
            <g id="svg_15">
                <path id="svg_16" d="M111.3,53.2C111.8,54 112.2,55 112.5,56.1C112.8,57.3 113,58.5 113,59.8C113,63.3 111.8,66.5 109.9,68.2C109,68.9 108,69.3 107.1,69.1C106.9,69.1 106.7,69 106.5,69C106.4,69 106.3,68.9 106.2,68.9C106.1,68.9 106,68.8 106,68.8C105.8,68.7 105.7,68.6 105.5,68.5C103.7,67.3 102.4,64.7 102,61.6L102,61.5C102,61.2 101.9,60.9 101.9,60.6L101.9,58.9C101.9,58.6 101.9,58.3 102,58.1L102,57.9C102,57.7 102.1,57.5 102.1,57.3L102.1,57.1C102.1,56.9 102.2,56.7 102.2,56.6C102.2,56.5 102.3,56.3 102.3,56.2C102.3,56 102.4,55.8 102.5,55.7C102.5,55.6 102.5,55.5 102.6,55.5C102.7,55.3 102.7,55.1 102.8,55L102.9,54.8C103,54.6 103,54.5 103.1,54.3L103.1,54.2L103.2,54C103.3,53.8 103.4,53.6 103.6,53.3C103.7,53.1 103.9,52.9 104,52.7L104.1,52.6C104.2,52.5 104.2,52.5 104.2,52.4C104.2,52.3 104.3,52.3 104.3,52.3L104.8,51.8C104.9,51.7 104.9,51.7 105,51.7C105.1,51.6 105.2,51.5 105.3,51.5L105.4,51.4C105.5,51.3 105.7,51.2 105.8,51.2C105.9,51.2 105.9,51.2 105.9,51.1C106,51.1 106,51 106.1,51L106.3,51C106.4,51 106.6,50.9 106.7,50.9L107.2,50.9C108.9,50.4 110.3,51.5 111.3,53.2" style="fill:rgb(65,230,175);fill-rule:nonzero;"/>
            </g>
        </g>
        <g id="svg_17">
            <g id="svg_18">
                <path id="svg_19" d="M102.4,51C102.3,51.1 102.2,51.2 102.1,51.4L102,51.5C101.8,51.7 101.7,51.9 101.6,52.1C100.5,53.9 99.8,56.2 99.7,58.6L99.7,61.7C99.7,61.9 99.8,62.1 99.8,62.3L99.8,62.6C99.8,62.7 99.8,62.8 99.9,62.9C99.9,63.1 100,63.2 100,63.4L100.1,63.6L100.1,63.7C100.1,63.9 100.2,64 100.2,64.2C100.2,64.3 100.3,64.4 100.3,64.5C100.4,64.7 100.4,64.8 100.4,64.9C100.4,65 100.5,65.1 100.5,65.2L100.5,65.3C100.5,65.4 100.6,65.5 100.6,65.6C100.6,65.7 100.7,65.8 100.7,65.8C100.8,66.1 101,66.3 101.1,66.6L101.2,66.7C101.3,66.9 101.5,67.2 101.6,67.3C101.6,67.4 101.7,67.4 101.7,67.5L101.7,67.6C101.8,67.8 101.9,67.9 102,68L102.8,68.8L93.5,68.8L88.1,59.8L93.5,50.2L102.8,50.2L102.5,50.5C102.6,50.8 102.5,50.9 102.4,51" style="fill:rgb(65,230,175);fill-rule:nonzero;"/>
            </g>
        </g>
        <g id="svg_20">
            <g id="svg_21">
                <path id="svg_22" d="M49,102.3C48,102.3 47,102.1 45.9,101.8C44.7,101.5 43.6,100.9 42.5,100.3C39.5,98.5 37.4,95.8 37,93.3C36.8,92.2 37.1,91.2 37.7,90.4C37.8,90.3 37.9,90.1 38.1,90C38.2,89.9 38.3,89.9 38.4,89.8C38.5,89.8 38.5,89.7 38.6,89.7C38.8,89.6 38.9,89.5 39.1,89.4C41,88.5 43.9,88.7 46.8,90L46.9,90C47.2,90.1 47.4,90.3 47.7,90.4C47.9,90.5 48.2,90.7 48.4,90.8C48.7,91 48.9,91.1 49.2,91.3C49.4,91.5 49.7,91.6 49.9,91.8L50.1,91.9C50.3,92 50.4,92.2 50.6,92.3L52.1,93.8C52.2,93.9 52.3,94.1 52.4,94.2L52.5,94.4C52.6,94.5 52.7,94.7 52.8,94.8L52.9,95C53,95.2 53.2,95.4 53.3,95.7C53.4,95.9 53.5,96.1 53.6,96.3L53.7,96.4C53.7,96.5 53.8,96.6 53.8,96.6C53.8,96.7 53.8,96.7 53.9,96.8C53.9,96.9 54,97.1 54,97.2C54,97.3 54.1,97.4 54.1,97.5L54.1,99.4C54.1,99.5 54,99.7 54,99.8C53.9,100 53.9,100.1 53.8,100.3C52.6,101.6 51,102.3 49,102.3" style="fill:rgb(65,230,175);fill-rule:nonzero;"/>
            </g>
        </g>
        <g id="svg_23">
            <g id="svg_24">
                <path id="svg_25" d="M55.5,95.7C55.5,95.6 55.4,95.4 55.4,95.3C55.4,95.2 55.4,95.2 55.3,95.1C55.2,94.9 55.1,94.6 55,94.4C54.1,92.5 52.4,90.8 50.4,89.4C50.1,89.2 49.9,89 49.6,88.9C49.3,88.7 49.1,88.6 48.8,88.4L48.7,88.4C48.6,88.3 48.5,88.3 48.4,88.2C48.2,88.1 48.1,88 47.9,88L47.8,88C47.7,88 47.6,87.9 47.6,87.9C47.4,87.8 47.2,87.7 47.1,87.7L46.9,87.6L46.8,87.6C46.7,87.6 46.6,87.5 46.6,87.5C46.4,87.4 46.3,87.4 46.1,87.3L45.9,87.2L45.8,87.2C45.6,87.2 45.5,87.1 45.3,87.1C45.2,87.1 45.1,87 45,87C44.8,87 44.7,86.9 44.6,86.9C44.5,86.9 44.4,86.9 44.3,86.8L43.7,86.8C43.4,86.8 43.1,86.7 42.8,86.7L41.6,86.7C41.4,86.7 41.2,86.7 41,86.8L40.7,86.8C40.5,86.8 40.3,86.9 40.2,86.9C40.1,86.9 40,86.9 39.9,87L44.8,79L55.3,79.1L60.7,88.7L55.8,96.7C55.8,96.6 55.8,96.5 55.7,96.4L55.7,96.3C55.6,96 55.5,95.9 55.5,95.7C55.5,95.8 55.5,95.8 55.5,95.7" style="fill:rgb(65,230,175);fill-rule:nonzero;"/>
            </g>
        </g>
        <g id="svg_26">
            <g id="svg_27">
                <path id="svg_28" d="M74.2,107L48.5,106.9L44.6,114.3L41.8,119.4L48.7,119.3L87.9,119.4L91.8,112.6L63.6,64.2L7.5,64.2L4,70.4L4.7,71.5L4.6,71.5L26.9,110.8L34.3,98.8L21.3,76.6L56.4,76.6L74.2,107Z" style="fill:rgb(65,230,175);fill-rule:nonzero;"/>
            </g>
        </g>
    </g>
</svg>
